<svg width="16" height="16" viewBox="0 0 16 16" fill="none" xmlns="http://www.w3.org/2000/svg">
<path d="M4 1.33331L2 3.99998V13.3333C2 13.6869 2.14048 14.0261 2.39052 14.2761C2.64057 14.5262 2.97971 14.6666 3.33333 14.6666H12.6667C13.0203 14.6666 13.3594 14.5262 13.6095 14.2761C13.8595 14.0261 14 13.6869 14 13.3333V3.99998L12 1.33331H4Z" stroke="#CCBA8E" stroke-width="1.5" stroke-linecap="round" stroke-linejoin="round"/>
<path d="M2 4H14" stroke="#CCBA8E" stroke-width="1.5" stroke-linecap="round" stroke-linejoin="round"/>
<path d="M10.6667 6.66669C10.6667 7.37393 10.3857 8.05221 9.88561 8.55231C9.38552 9.0524 8.70724 9.33335 7.99999 9.33335C7.29275 9.33335 6.61447 9.0524 6.11438 8.55231C5.61428 8.05221 5.33333 7.37393 5.33333 6.66669" stroke="#CCBA8E" stroke-width="1.5" stroke-linecap="round" stroke-linejoin="round"/>
</svg>
