<svg width="181" height="28" viewBox="0 0 181 28" fill="none" xmlns="http://www.w3.org/2000/svg">
<g clip-path="url(#clip0_76_438)">
<path d="M21.9152 6.18967C22.5854 5.53351 23 4.62808 23 3.6277C23 1.62427 21.337 0 19.2859 0C17.9891 0 16.849 0.650249 16.1846 1.63395C16.0082 1.80659 1.22299 19.6057 1.08477 19.8103C0.414635 20.4665 0 21.3722 0 22.372C0 24.3757 1.66295 26 3.71412 26C5.01089 26 6.15101 25.35 6.81537 24.3661C6.99185 24.1934 21.777 6.39404 21.9152 6.18967Z" fill="#FAFAFA"/>
<path d="M29.9115 14.3488C30.5842 13.6755 31 12.7461 31 11.7192C31 9.66521 29.3356 8 27.2827 8C25.9843 8 24.8426 8.66719 24.1777 9.67652C23.9997 9.85489 16.2276 19.4401 16.0885 19.6512C15.4158 20.3245 15 21.2539 15 22.2806C15 24.3348 16.6644 26 18.7173 26C20.0157 26 21.1573 25.3328 21.822 24.3235C22 24.1454 29.7724 14.5599 29.9115 14.3488Z" fill="#FAFAFA"/>
<path d="M38 3.50001C38 5.43318 36.4329 7 34.5 7C32.5668 7 31 5.43318 31 3.50001C31 1.5671 32.5668 0 34.5 0C36.4329 0 38 1.5671 38 3.50001Z" fill="#FAFAFA"/>
<path d="M7 3.50001C7 5.43318 5.43291 7 3.5 7C1.56708 7 0 5.43318 0 3.50001C0 1.5671 1.56708 0 3.5 0C5.43291 0 7 1.5671 7 3.50001Z" fill="#FAFAFA"/>
<path d="M62.4445 1.35257C62.3625 2.27269 62.301 3.16144 62.26 4.01882C62.2396 4.8762 62.2293 5.53492 62.2293 5.99498C62.2293 6.41322 62.2396 6.81054 62.26 7.18695C62.2805 7.56336 62.301 7.87704 62.3215 8.12798H61.6146C61.4096 6.60142 61.092 5.399 60.6617 4.5207C60.2314 3.6215 59.6679 2.99414 58.9712 2.63864C58.2949 2.26223 57.4958 2.07403 56.5736 2.07403H55.3134C54.7192 2.07403 54.2683 2.12631 53.961 2.23087C53.6536 2.33543 53.4487 2.54454 53.3462 2.85822C53.2438 3.1719 53.1925 3.65286 53.1925 4.30113V20.6123C53.1925 21.2606 53.2438 21.7415 53.3462 22.0552C53.4487 22.3689 53.6536 22.578 53.961 22.6826C54.2683 22.7871 54.7192 22.8394 55.3134 22.8394H56.8195C57.7417 22.8394 58.5511 22.6407 59.2478 22.2434C59.965 21.8252 60.5695 21.1246 61.0613 20.1418C61.5736 19.1589 61.9629 17.831 62.2293 16.1581H62.9363C62.8748 16.8273 62.8441 17.7056 62.8441 18.793C62.8441 19.2739 62.8543 19.9536 62.8748 20.8319C62.8953 21.7102 62.9568 22.6198 63.0592 23.5609C62.0141 23.519 60.8359 23.4981 59.5244 23.4981C58.213 23.4772 57.0449 23.4668 56.0204 23.4668C55.5081 23.4668 54.8523 23.4668 54.0532 23.4668C53.254 23.4668 52.3934 23.4772 51.4712 23.4981C50.5491 23.4981 49.6168 23.5086 48.6741 23.5295C47.7315 23.5295 46.8402 23.5399 46 23.5609V22.9335C46.6557 22.8917 47.1475 22.808 47.4754 22.6826C47.8033 22.5571 48.0184 22.3061 48.1209 21.9297C48.2438 21.5533 48.3053 20.9887 48.3053 20.2359V4.67754C48.3053 3.90381 48.2438 3.33919 48.1209 2.98369C48.0184 2.60728 47.793 2.35634 47.4447 2.23087C47.1168 2.08448 46.6352 2.00084 46 1.97993V1.35257C46.8402 1.37349 47.7315 1.3944 48.6741 1.41531C49.6168 1.41531 50.5491 1.42576 51.4712 1.44668C52.3934 1.44668 53.254 1.44668 54.0532 1.44668C54.8523 1.44668 55.5081 1.44668 56.0204 1.44668C56.963 1.44668 58.0285 1.44668 59.2171 1.44668C60.4261 1.42576 61.5019 1.3944 62.4445 1.35257ZM57.6494 12.0803C57.6494 12.0803 57.6494 12.1849 57.6494 12.394C57.6494 12.6031 57.6494 12.7077 57.6494 12.7077H52.2704C52.2704 12.7077 52.2704 12.6031 52.2704 12.394C52.2704 12.1849 52.2704 12.0803 52.2704 12.0803H57.6494ZM58.5408 7.93977C58.4589 9.13174 58.4179 10.0414 58.4179 10.6688C58.4384 11.2961 58.4486 11.8712 58.4486 12.394C58.4486 12.9168 58.4589 13.4918 58.4794 14.1192C58.4998 14.7465 58.5511 15.6562 58.633 16.8482H57.9261C57.8236 16.1163 57.629 15.4366 57.3421 14.8093C57.0757 14.1819 56.6863 13.68 56.1741 13.3036C55.6618 12.9063 54.9958 12.7077 54.1761 12.7077V12.0803C54.7909 12.0803 55.3134 11.9548 55.7437 11.7039C56.1741 11.432 56.5224 11.087 56.7888 10.6688C57.0757 10.2296 57.3011 9.76955 57.465 9.28858C57.629 8.80761 57.7519 8.35801 57.8339 7.93977H58.5408Z" fill="#FAFAFA"/>
<path d="M79.8989 -1V20.1104C79.8989 21.0514 80.0424 21.752 80.3293 22.212C80.6162 22.6512 81.1284 22.8708 81.8661 22.8708V23.5295C81.2309 23.4668 80.5957 23.4354 79.9604 23.4354C79.0998 23.4354 78.2904 23.4668 77.5322 23.5295C76.7945 23.5922 76.108 23.7072 75.4728 23.8745V2.76412C75.4728 1.82309 75.3293 1.133 75.0424 0.693853C74.7761 0.233794 74.2638 0.00376427 73.5056 0.00376427V-0.654955C74.1613 -0.59222 74.7966 -0.560853 75.4113 -0.560853C76.2515 -0.560853 77.0506 -0.59222 77.8088 -0.654955C78.567 -0.738602 79.2637 -0.853617 79.8989 -1ZM72.0609 6.90464C72.9626 6.90464 73.7515 7.06148 74.4277 7.37516C75.1244 7.66792 75.6674 8.1698 76.0568 8.8808L75.6879 9.22585C75.4215 8.72396 75.0629 8.36847 74.6121 8.15935C74.1818 7.92932 73.7207 7.8143 73.2289 7.8143C72.1839 7.8143 71.354 8.44166 70.7392 9.69636C70.1245 10.9302 69.8274 12.8436 69.8478 15.4366C69.8478 17.2141 69.9605 18.6361 70.186 19.7026C70.4319 20.7482 70.77 21.501 71.2003 21.9611C71.6511 22.4212 72.1634 22.6512 72.7372 22.6512C73.4339 22.6512 74.0589 22.3689 74.6121 21.8043C75.1654 21.2396 75.4625 20.4764 75.5035 19.5144L75.6572 20.6123C75.3498 21.7206 74.8478 22.5675 74.1511 23.1531C73.4748 23.7177 72.5835 24 71.4769 24C70.2679 24 69.1819 23.6968 68.2188 23.0903C67.2762 22.4839 66.5385 21.5533 66.0057 20.2986C65.4729 19.023 65.2065 17.3814 65.2065 15.3739C65.2065 13.4709 65.5036 11.9026 66.0979 10.6688C66.6921 9.41405 67.5016 8.47302 68.5261 7.84567C69.5712 7.21832 70.7495 6.90464 72.0609 6.90464Z" fill="#FAFAFA"/>
<path d="M98.1464 6.99875V20.1418C98.1464 21.0828 98.2898 21.7834 98.5767 22.2434C98.8636 22.6826 99.3758 22.9021 100.114 22.9021V23.5609C99.4783 23.4981 98.8431 23.4668 98.2078 23.4668C97.3472 23.4668 96.548 23.4981 95.8103 23.5609C95.0726 23.6236 94.3759 23.7386 93.7202 23.9059V21.0828C93.2284 22.1284 92.5419 22.8812 91.6608 23.3413C90.8001 23.7804 89.837 24 88.7715 24C87.9108 24 87.2141 23.885 86.6813 23.655C86.1485 23.4249 85.7285 23.1322 85.4211 22.7767C85.0727 22.3793 84.8268 21.8565 84.6834 21.2083C84.54 20.56 84.4682 19.7235 84.4682 18.6989V10.7629C84.4682 9.82183 84.3248 9.13174 84.0379 8.6926C83.7715 8.23254 83.2592 8.00251 82.5011 8.00251V7.34379C83.1568 7.40653 83.792 7.43789 84.4068 7.43789C85.2674 7.43789 86.0666 7.40653 86.8043 7.34379C87.5625 7.26014 88.2592 7.14513 88.8944 6.99875V19.9849C88.8944 20.5077 88.9354 20.9678 89.0174 21.3651C89.1198 21.7624 89.3042 22.0761 89.5706 22.3061C89.837 22.5153 90.2264 22.6198 90.7387 22.6198C91.2919 22.6198 91.7837 22.463 92.2141 22.1493C92.6649 21.8356 93.0235 21.4069 93.2899 20.8632C93.5767 20.2986 93.7202 19.6713 93.7202 18.9812V10.7629C93.7202 9.82183 93.5767 9.13174 93.2899 8.6926C93.0235 8.23254 92.5112 8.00251 91.753 8.00251V7.34379C92.4087 7.40653 93.044 7.43789 93.6587 7.43789C94.5193 7.43789 95.3185 7.40653 96.0562 7.34379C96.8144 7.26014 97.5111 7.14513 98.1464 6.99875Z" fill="#FAFAFA"/>
<path d="M107.258 6.90464C108.119 6.90464 108.867 7.01966 109.502 7.24969C110.158 7.4588 110.629 7.66792 110.916 7.87704C111.613 8.35801 112.043 8.04433 112.207 6.93601H112.852C112.812 7.52154 112.781 8.24299 112.76 9.10038C112.74 9.93685 112.73 11.0556 112.73 12.4567H112.084C111.982 11.683 111.787 10.9197 111.5 10.1669C111.213 9.41405 110.793 8.79716 110.24 8.31619C109.707 7.83522 109.01 7.59473 108.15 7.59473C107.555 7.59473 107.053 7.77248 106.644 8.12798C106.234 8.46257 106.029 8.95399 106.029 9.60226C106.029 10.2296 106.213 10.7838 106.582 11.2647C106.951 11.7248 107.422 12.1744 107.996 12.6136C108.59 13.0318 109.205 13.4814 109.84 13.9624C110.516 14.4852 111.131 15.0079 111.684 15.5307C112.238 16.0326 112.678 16.5868 113.006 17.1932C113.334 17.7997 113.498 18.5211 113.498 19.3576C113.498 20.2986 113.232 21.1246 112.699 21.8356C112.166 22.5257 111.459 23.059 110.578 23.4354C109.717 23.8118 108.754 24 107.689 24C107.074 24 106.521 23.9373 106.029 23.8118C105.557 23.6863 105.148 23.5295 104.799 23.3413C104.533 23.2158 104.277 23.1008 104.031 22.9962C103.805 22.8708 103.59 22.7662 103.385 22.6826C103.18 22.6198 102.996 22.693 102.832 22.9021C102.689 23.1113 102.576 23.404 102.494 23.7804H101.849C101.89 23.1113 101.92 22.2957 101.941 21.3338C101.961 20.3718 101.971 19.0962 101.971 17.5069H102.617C102.74 18.6361 102.965 19.6399 103.293 20.5182C103.621 21.3756 104.062 22.0552 104.615 22.5571C105.189 23.0381 105.906 23.2785 106.766 23.2785C107.115 23.2785 107.453 23.2054 107.781 23.059C108.109 22.9126 108.375 22.6721 108.58 22.3375C108.805 22.0029 108.918 21.5742 108.918 21.0514C108.918 20.1313 108.621 19.368 108.027 18.7616C107.453 18.1552 106.715 17.4964 105.814 16.7854C105.158 16.2417 104.533 15.7085 103.939 15.1857C103.365 14.642 102.894 14.0565 102.525 13.4291C102.156 12.7808 101.971 12.0489 101.971 11.2334C101.971 10.2923 102.217 9.4977 102.709 8.84944C103.201 8.20117 103.846 7.7202 104.646 7.40652C105.465 7.07194 106.336 6.90464 107.258 6.90464Z" fill="#FAFAFA"/>
<path d="M122.993 6.90464C124.796 6.90464 126.21 7.44835 127.235 8.53576C128.259 9.62317 128.772 11.4007 128.772 13.8683H118.659L118.598 13.2723H124.899C124.919 12.2476 124.858 11.3066 124.714 10.4492C124.571 9.57089 124.346 8.87035 124.038 8.34755C123.731 7.82476 123.321 7.56336 122.809 7.56336C122.092 7.56336 121.477 8.02342 120.964 8.94354C120.473 9.86366 120.176 11.3902 120.073 13.5232L120.165 13.7114C120.145 13.9624 120.124 14.2238 120.104 14.4956C120.104 14.7675 120.104 15.0498 120.104 15.3425C120.104 16.7854 120.299 17.9565 120.688 18.8557C121.098 19.7549 121.61 20.4136 122.225 20.8319C122.839 21.2292 123.464 21.4279 124.1 21.4279C124.53 21.4279 124.971 21.3651 125.421 21.2396C125.893 21.0933 126.364 20.8423 126.835 20.4868C127.307 20.1104 127.747 19.5876 128.157 18.9184L128.71 19.1067C128.464 19.9013 128.075 20.675 127.542 21.4279C127.01 22.1807 126.333 22.7976 125.514 23.2785C124.694 23.7595 123.71 24 122.563 24C121.169 24 119.94 23.6968 118.874 23.0903C117.809 22.4839 116.969 21.5638 116.354 20.33C115.76 19.0962 115.463 17.5278 115.463 15.6248C115.463 13.68 115.78 12.0594 116.415 10.7629C117.071 9.46633 117.962 8.50439 119.09 7.87704C120.237 7.22878 121.538 6.90464 122.993 6.90464Z" fill="#FAFAFA"/>
<path d="M140.638 6.90464C141.294 6.90464 141.826 7.05103 142.236 7.34379C142.646 7.61564 142.943 7.97114 143.128 8.41029C143.332 8.84944 143.435 9.30949 143.435 9.79047C143.435 10.5642 143.21 11.202 142.759 11.7039C142.328 12.1849 141.755 12.4253 141.037 12.4253C140.32 12.4253 139.757 12.2476 139.347 11.8921C138.958 11.5157 138.763 11.0243 138.763 10.4178C138.763 9.83229 138.886 9.35132 139.132 8.97491C139.398 8.57758 139.726 8.243 140.115 7.97114C139.828 7.8875 139.542 7.89795 139.255 8.00251C138.865 8.06525 138.496 8.23254 138.148 8.50439C137.8 8.75533 137.503 9.07946 137.257 9.47679C137.011 9.8532 136.816 10.2714 136.673 10.7315C136.529 11.1706 136.458 11.5993 136.458 12.0176V20.33C136.458 21.3338 136.693 22.0134 137.164 22.3689C137.656 22.7244 138.384 22.9021 139.347 22.9021V23.5609C138.876 23.5399 138.189 23.519 137.287 23.4981C136.386 23.4563 135.443 23.4354 134.46 23.4354C133.64 23.4354 132.81 23.4563 131.97 23.4981C131.13 23.519 130.495 23.5399 130.064 23.5609V22.9021C130.781 22.9021 131.283 22.7453 131.57 22.4316C131.878 22.1179 132.031 21.522 132.031 20.6437V10.7629C132.031 9.82183 131.888 9.13174 131.601 8.6926C131.335 8.23254 130.822 8.00251 130.064 8.00251V7.34379C130.72 7.40653 131.355 7.43789 131.97 7.43789C132.831 7.43789 133.63 7.40653 134.367 7.34379C135.126 7.26014 135.822 7.14513 136.458 6.99875V9.91594C136.703 9.35132 137.031 8.83898 137.441 8.37892C137.851 7.91886 138.322 7.56336 138.855 7.31242C139.388 7.04057 139.982 6.90464 140.638 6.90464Z" fill="#FAFAFA"/>
<path d="M148.101 -0.749058C148.961 -0.749058 149.638 -0.529485 150.129 -0.0903375C150.642 0.327897 150.898 0.913426 150.898 1.66625C150.898 2.41907 150.642 3.01506 150.129 3.4542C149.638 3.87244 148.961 4.08156 148.101 4.08156C147.24 4.08156 146.554 3.87244 146.041 3.4542C145.55 3.01506 145.304 2.41907 145.304 1.66625C145.304 0.913426 145.55 0.327897 146.041 -0.0903375C146.554 -0.529485 147.24 -0.749058 148.101 -0.749058ZM150.498 6.99875V20.6437C150.498 21.522 150.642 22.1179 150.929 22.4316C151.236 22.7453 151.748 22.9021 152.465 22.9021V23.5609C152.097 23.5399 151.523 23.519 150.744 23.4981C149.965 23.4563 149.177 23.4354 148.377 23.4354C147.578 23.4354 146.769 23.4563 145.949 23.4981C145.129 23.519 144.515 23.5399 144.105 23.5609V22.9021C144.822 22.9021 145.324 22.7453 145.611 22.4316C145.918 22.1179 146.072 21.522 146.072 20.6437V10.7629C146.072 9.82183 145.929 9.13174 145.642 8.6926C145.375 8.23254 144.863 8.00251 144.105 8.00251V7.34379C144.761 7.40653 145.396 7.43789 146.011 7.43789C146.871 7.43789 147.67 7.40653 148.408 7.34379C149.166 7.26014 149.863 7.14513 150.498 6.99875Z" fill="#FAFAFA"/>
<path d="M161.423 6.90464C163.226 6.90464 164.64 7.44835 165.665 8.53576C166.69 9.62317 167.202 11.4007 167.202 13.8683H157.089L157.028 13.2723H163.329C163.349 12.2476 163.288 11.3066 163.145 10.4492C163.001 9.57089 162.776 8.87035 162.468 8.34755C162.161 7.82476 161.751 7.56336 161.239 7.56336C160.522 7.56336 159.907 8.02342 159.395 8.94354C158.903 9.86366 158.606 11.3902 158.503 13.5232L158.595 13.7114C158.575 13.9624 158.554 14.2238 158.534 14.4956C158.534 14.7675 158.534 15.0498 158.534 15.3425C158.534 16.7854 158.729 17.9565 159.118 18.8557C159.528 19.7549 160.04 20.4136 160.655 20.8319C161.27 21.2292 161.895 21.4279 162.53 21.4279C162.96 21.4279 163.401 21.3651 163.851 21.2396C164.323 21.0933 164.794 20.8423 165.265 20.4868C165.737 20.1104 166.177 19.5876 166.587 18.9184L167.14 19.1067C166.894 19.9013 166.505 20.675 165.972 21.4279C165.44 22.1807 164.763 22.7976 163.944 23.2785C163.124 23.7595 162.14 24 160.993 24C159.599 24 158.37 23.6968 157.304 23.0903C156.239 22.4839 155.399 21.5638 154.784 20.33C154.19 19.0962 153.893 17.5278 153.893 15.6248C153.893 13.68 154.21 12.0594 154.845 10.7629C155.501 9.46633 156.393 8.50439 157.52 7.87704C158.667 7.22878 159.968 6.90464 161.423 6.90464Z" fill="#FAFAFA"/>
<path d="M174.76 6.90464C175.621 6.90464 176.369 7.01966 177.004 7.24969C177.66 7.4588 178.131 7.66792 178.418 7.87704C179.115 8.35801 179.545 8.04433 179.709 6.93601H180.355C180.314 7.52154 180.283 8.24299 180.262 9.10038C180.242 9.93685 180.232 11.0556 180.232 12.4567H179.586C179.484 11.683 179.289 10.9197 179.002 10.1669C178.715 9.41405 178.295 8.79716 177.742 8.31619C177.209 7.83522 176.512 7.59473 175.652 7.59473C175.057 7.59473 174.555 7.77248 174.146 8.12798C173.736 8.46257 173.531 8.95399 173.531 9.60226C173.531 10.2296 173.715 10.7838 174.084 11.2647C174.453 11.7248 174.924 12.1744 175.498 12.6136C176.092 13.0318 176.707 13.4814 177.342 13.9624C178.018 14.4852 178.633 15.0079 179.187 15.5307C179.74 16.0326 180.18 16.5868 180.508 17.1932C180.836 17.7997 181 18.5211 181 19.3576C181 20.2986 180.734 21.1246 180.201 21.8356C179.668 22.5257 178.961 23.059 178.08 23.4354C177.219 23.8118 176.256 24 175.191 24C174.576 24 174.023 23.9373 173.531 23.8118C173.06 23.6863 172.65 23.5295 172.301 23.3413C172.035 23.2158 171.779 23.1008 171.533 22.9962C171.308 22.8708 171.092 22.7662 170.887 22.6826C170.683 22.6198 170.498 22.693 170.334 22.9021C170.191 23.1113 170.078 23.404 169.996 23.7804H169.351C169.392 23.1113 169.422 22.2957 169.443 21.3338C169.463 20.3718 169.474 19.0962 169.474 17.5069H170.119C170.242 18.6361 170.467 19.6399 170.795 20.5182C171.123 21.3756 171.564 22.0552 172.117 22.5571C172.691 23.0381 173.408 23.2785 174.269 23.2785C174.617 23.2785 174.955 23.2054 175.283 23.059C175.611 22.9126 175.877 22.6721 176.082 22.3375C176.307 22.0029 176.42 21.5742 176.42 21.0514C176.42 20.1313 176.123 19.368 175.529 18.7616C174.955 18.1552 174.217 17.4964 173.316 16.7854C172.66 16.2417 172.035 15.7085 171.441 15.1857C170.867 14.642 170.396 14.0565 170.027 13.4291C169.658 12.7808 169.474 12.0489 169.474 11.2334C169.474 10.2923 169.719 9.4977 170.211 8.84944C170.703 8.20117 171.348 7.7202 172.148 7.40652C172.967 7.07194 173.838 6.90464 174.76 6.90464Z" fill="#FAFAFA"/>
</g>
<defs>
<clipPath id="clip0_76_438">
<rect width="181" height="28" fill="white"/>
</clipPath>
</defs>
</svg>
