<svg width="16" height="16" viewBox="0 0 16 16" fill="none" xmlns="http://www.w3.org/2000/svg">
<path d="M8.00065 5.99992C7.47021 5.99992 6.96151 6.21063 6.58643 6.5857C6.21136 6.96078 6.00065 7.46949 6.00065 7.99992C6.00065 8.53035 6.21136 9.03906 6.58643 9.41413C6.96151 9.7892 7.47021 9.99992 8.00065 9.99992C8.53108 9.99992 9.03979 9.7892 9.41486 9.41413C9.78993 9.03906 10.0006 8.53035 10.0006 7.99992C10.0006 7.46949 9.78993 6.96078 9.41486 6.5857C9.03979 6.21063 8.53108 5.99992 8.00065 5.99992ZM8.00065 4.66658C8.8847 4.66659 9.73255 5.01777 10.3577 5.6429C10.9828 6.26802 11.334 7.11586 11.334 7.99992C11.334 8.88397 10.9828 9.73182 10.3577 10.3569C9.73255 10.9821 8.8847 11.3333 8.00065 11.3333C7.11659 11.3333 6.26874 10.9821 5.64362 10.3569C5.0185 9.73182 4.66731 8.88397 4.66731 7.99992C4.66731 7.11586 5.0185 6.26802 5.64362 5.6429C6.26874 5.01777 7.11659 4.66659 8.00065 4.66658ZM12.334 4.49992C12.334 4.72093 12.2462 4.93289 12.0899 5.08917C11.9336 5.24545 11.7217 5.33325 11.5006 5.33325C11.2796 5.33325 11.0677 5.24545 10.9114 5.08917C10.7551 4.93289 10.6673 4.72093 10.6673 4.49992C10.6673 4.2789 10.7551 4.06694 10.9114 3.91066C11.0677 3.75438 11.2796 3.66659 11.5006 3.66659C11.7217 3.66659 11.9336 3.75438 12.0899 3.91066C12.2462 4.06694 12.334 4.2789 12.334 4.49992ZM8.00065 2.66659C6.35131 2.66659 6.08198 2.67125 5.31465 2.70525C4.79198 2.72992 4.44131 2.79992 4.11598 2.92659C3.84387 3.02683 3.59779 3.18701 3.39598 3.39525C3.18749 3.597 3.02709 3.84308 2.92665 4.11525C2.79998 4.44192 2.72998 4.79192 2.70598 5.31392C2.67131 6.04992 2.66665 6.30725 2.66665 7.99992C2.66665 9.64992 2.67131 9.91858 2.70531 10.6859C2.72998 11.2079 2.79998 11.5593 2.92598 11.8839C3.03931 12.1739 3.17265 12.3826 3.39398 12.6039C3.61865 12.8279 3.82731 12.9619 4.11398 13.0726C4.44331 13.1999 4.79398 13.2706 5.31398 13.2946C6.04998 13.3293 6.30731 13.3333 7.99998 13.3333C9.64998 13.3333 9.91864 13.3286 10.686 13.2946C11.2073 13.2699 11.558 13.1999 11.884 13.0739C12.1561 12.9737 12.4022 12.8135 12.604 12.6053C12.8286 12.3813 12.9626 12.1726 13.0733 11.8853C13.2 11.5573 13.2706 11.2066 13.2946 10.6853C13.3293 9.94992 13.3333 9.69192 13.3333 7.99992C13.3333 6.35058 13.3286 6.08125 13.2946 5.31392C13.27 4.79259 13.1993 4.44058 13.0733 4.11525C12.9731 3.84314 12.8129 3.59707 12.6046 3.39525C12.4029 3.18677 12.1568 3.02636 11.8846 2.92592C11.558 2.79925 11.2073 2.72925 10.686 2.70525C9.95065 2.67059 9.69331 2.66659 7.99998 2.66659M7.99998 1.33325C9.81131 1.33325 10.0373 1.33992 10.7486 1.37325C11.458 1.40659 11.942 1.51792 12.3666 1.68325C12.8066 1.85259 13.1773 2.08192 13.548 2.45192C13.8871 2.78507 14.1494 3.18823 14.3166 3.63325C14.4813 4.05792 14.5933 4.54192 14.6266 5.25192C14.658 5.96258 14.6666 6.18858 14.6666 7.99992C14.6666 9.81125 14.66 10.0373 14.6266 10.7479C14.5933 11.4586 14.4813 11.9413 14.3166 12.3666C14.1494 12.8116 13.8871 13.2148 13.548 13.5479C13.2148 13.887 12.8117 14.1494 12.3666 14.3166C11.942 14.4813 11.458 14.5933 10.7486 14.6266C10.0373 14.6579 9.81131 14.6666 7.99998 14.6666C6.18865 14.6666 5.96265 14.6599 5.25131 14.6266C4.54198 14.5933 4.05865 14.4813 3.63331 14.3166C3.18829 14.1494 2.78513 13.887 2.45198 13.5479C2.11285 13.2148 1.85052 12.8116 1.68331 12.3666C1.51798 11.9419 1.40665 11.4579 1.37331 10.7479C1.34131 10.0373 1.33331 9.81125 1.33331 7.99992C1.33331 6.18858 1.33998 5.96258 1.37331 5.25192C1.40665 4.54125 1.51798 4.05858 1.68331 3.63325C1.85052 3.18823 2.11285 2.78507 2.45198 2.45192C2.78513 2.11279 3.18829 1.85046 3.63331 1.68325C4.05798 1.51792 4.54131 1.40659 5.25131 1.37325C5.96331 1.34192 6.18931 1.33325 8.00065 1.33325" fill="url(#paint0_linear_58_83)"/>
<defs>
<linearGradient id="paint0_linear_58_83" x1="8.05166" y1="0.666585" x2="8.05165" y2="14.6666" gradientUnits="userSpaceOnUse">
<stop offset="0.0282893" stop-color="#998C6B"/>
<stop offset="0.187179" stop-color="#C3B48D"/>
<stop offset="0.308519" stop-color="#E9D7AB"/>
<stop offset="0.400205" stop-color="#EAD8AC"/>
<stop offset="0.442835" stop-color="#EBDCB8"/>
<stop offset="0.500621" stop-color="#EFE2C3"/>
<stop offset="0.554776" stop-color="#EBDCB8"/>
<stop offset="0.660794" stop-color="#EADBB6"/>
<stop offset="0.727334" stop-color="#E9D7AB"/>
<stop offset="0.829103" stop-color="#C3B48D"/>
<stop offset="0.972694" stop-color="#998B6B"/>
</linearGradient>
</defs>
</svg>
