<svg width="16" height="16" viewBox="0 0 16 16" fill="none" xmlns="http://www.w3.org/2000/svg">
<path d="M10.6666 5.33325C11.7275 5.33325 12.7449 5.75468 13.4951 6.50482C14.2452 7.25497 14.6666 8.27239 14.6666 9.33325V13.9999H12V9.33325C12 8.97963 11.8595 8.64049 11.6095 8.39044C11.3594 8.14039 11.0203 7.99992 10.6666 7.99992C10.313 7.99992 9.97389 8.14039 9.72384 8.39044C9.47379 8.64049 9.33331 8.97963 9.33331 9.33325V13.9999H6.66665V9.33325C6.66665 8.27239 7.08807 7.25497 7.83822 6.50482C8.58836 5.75468 9.60578 5.33325 10.6666 5.33325ZM1.33331 5.99992H3.99998V13.9999H1.33331V5.99992Z" stroke="url(#paint0_linear_58_73)" stroke-linecap="round" stroke-linejoin="round"/>
<path d="M2.66665 3.99992C3.40303 3.99992 3.99998 3.40297 3.99998 2.66659C3.99998 1.93021 3.40303 1.33325 2.66665 1.33325C1.93027 1.33325 1.33331 1.93021 1.33331 2.66659C1.33331 3.40297 1.93027 3.99992 2.66665 3.99992Z" stroke="url(#paint1_linear_58_73)" stroke-linecap="round" stroke-linejoin="round"/>
<defs>
<linearGradient id="paint0_linear_58_73" x1="8.05166" y1="4.89992" x2="8.05166" y2="13.9999" gradientUnits="userSpaceOnUse">
<stop offset="0.0282893" stop-color="#998C6B"/>
<stop offset="0.187179" stop-color="#C3B48D"/>
<stop offset="0.308519" stop-color="#E9D7AB"/>
<stop offset="0.400205" stop-color="#EAD8AC"/>
<stop offset="0.442835" stop-color="#EBDCB8"/>
<stop offset="0.500621" stop-color="#EFE2C3"/>
<stop offset="0.554776" stop-color="#EBDCB8"/>
<stop offset="0.660794" stop-color="#EADBB6"/>
<stop offset="0.727334" stop-color="#E9D7AB"/>
<stop offset="0.829103" stop-color="#C3B48D"/>
<stop offset="0.972694" stop-color="#998B6B"/>
</linearGradient>
<linearGradient id="paint1_linear_58_73" x1="2.67698" y1="1.19992" x2="2.67698" y2="3.99992" gradientUnits="userSpaceOnUse">
<stop offset="0.0282893" stop-color="#998C6B"/>
<stop offset="0.187179" stop-color="#C3B48D"/>
<stop offset="0.308519" stop-color="#E9D7AB"/>
<stop offset="0.400205" stop-color="#EAD8AC"/>
<stop offset="0.442835" stop-color="#EBDCB8"/>
<stop offset="0.500621" stop-color="#EFE2C3"/>
<stop offset="0.554776" stop-color="#EBDCB8"/>
<stop offset="0.660794" stop-color="#EADBB6"/>
<stop offset="0.727334" stop-color="#E9D7AB"/>
<stop offset="0.829103" stop-color="#C3B48D"/>
<stop offset="0.972694" stop-color="#998B6B"/>
</linearGradient>
</defs>
</svg>
