<svg width="16" height="16" viewBox="0 0 16 16" fill="none" xmlns="http://www.w3.org/2000/svg">
<g clip-path="url(#clip0_58_79)">
<path fill-rule="evenodd" clip-rule="evenodd" d="M11.878 4.65943C11.6427 4.32077 11.0134 3.84477 9.99403 4.0501C9.39936 4.16943 9.04403 4.46343 8.81803 4.85143C8.57736 5.26477 8.4607 5.82677 8.4607 6.48077C8.4607 6.65758 8.39046 6.82715 8.26543 6.95217C8.14041 7.07719 7.97084 7.14743 7.79403 7.14743C6.2167 7.14743 4.71536 6.67877 3.45203 5.41143C3.35654 5.92562 3.31897 6.44888 3.34003 6.97143C3.37536 7.69543 3.54803 8.42143 3.95803 9.04343C4.36136 9.65477 5.0247 10.2148 6.13403 10.5668C6.24273 10.6012 6.34077 10.663 6.41877 10.7462C6.49678 10.8294 6.55213 10.9312 6.57956 11.0419C6.60698 11.1526 6.60555 11.2685 6.5754 11.3785C6.54525 11.4885 6.4874 11.5889 6.40736 11.6701C6.05213 12.0347 5.6494 12.3497 5.21003 12.6068C5.9167 12.6801 6.59803 12.6854 7.23003 12.6281C8.51003 12.5121 9.52936 12.1461 10.1667 11.6281C11.5087 10.5401 12.2267 8.91743 12.0934 6.19877C12.0707 5.7521 12.502 5.2701 12.71 4.9041C12.396 4.96277 12.0814 4.9521 11.878 4.65943ZM3.0627 3.32277C3.1834 3.30874 3.30564 3.32797 3.4162 3.37837C3.52677 3.42878 3.62146 3.50845 3.69003 3.60877C4.67403 5.0481 5.85536 5.64677 7.1667 5.78277C7.2307 5.2221 7.38203 4.6681 7.6667 4.1801C8.08403 3.4641 8.7627 2.93743 9.73203 2.74277C11.072 2.47343 12.092 2.95877 12.6834 3.55277L13.878 3.32943C14.003 3.30601 14.1321 3.31883 14.2501 3.3664C14.3681 3.41396 14.47 3.49428 14.5438 3.59786C14.6176 3.70145 14.6602 3.82399 14.6666 3.95102C14.673 4.07805 14.643 4.20426 14.58 4.31477L13.4334 6.32943C13.538 9.23677 12.73 11.2661 11.0074 12.6641C10.094 13.4054 8.78603 13.8261 7.3507 13.9561C5.90403 14.0868 4.2687 13.9288 2.64336 13.4541C2.50449 13.4136 2.38256 13.329 2.29598 13.2131C2.2094 13.0972 2.16286 12.9563 2.16338 12.8117C2.16391 12.667 2.21148 12.5265 2.2989 12.4112C2.38633 12.2959 2.50887 12.2123 2.64803 12.1728C3.46536 11.9401 4.08803 11.7394 4.65003 11.3881C3.8507 10.9641 3.26203 10.4094 2.84536 9.77743C2.2667 8.89877 2.05203 7.91877 2.00936 7.03543C1.9667 6.1521 2.09403 5.33343 2.2287 4.74343C2.30536 4.40677 2.3947 4.06943 2.51803 3.74677C2.56153 3.63303 2.63536 3.53337 2.7315 3.45863C2.82763 3.38388 2.94174 3.33689 3.0627 3.32277Z" fill="url(#paint0_linear_58_79)"/>
</g>
<defs>
<linearGradient id="paint0_linear_58_79" x1="8.38332" y1="2.09982" x2="8.38331" y2="14.0001" gradientUnits="userSpaceOnUse">
<stop offset="0.0282893" stop-color="#998C6B"/>
<stop offset="0.187179" stop-color="#C3B48D"/>
<stop offset="0.308519" stop-color="#E9D7AB"/>
<stop offset="0.400205" stop-color="#EAD8AC"/>
<stop offset="0.442835" stop-color="#EBDCB8"/>
<stop offset="0.500621" stop-color="#EFE2C3"/>
<stop offset="0.554776" stop-color="#EBDCB8"/>
<stop offset="0.660794" stop-color="#EADBB6"/>
<stop offset="0.727334" stop-color="#E9D7AB"/>
<stop offset="0.829103" stop-color="#C3B48D"/>
<stop offset="0.972694" stop-color="#998B6B"/>
</linearGradient>
<clipPath id="clip0_58_79">
<rect width="16" height="16" fill="white"/>
</clipPath>
</defs>
</svg>
